<svg xmlns="http://www.w3.org/2000/svg" viewBox="0 0 64 64" fill="currentColor">
  <!-- Stylized skull -->
  <g stroke="currentColor" stroke-linecap="round" stroke-linejoin="round" stroke-width="2" fill="currentColor">
    <!-- Cranium -->
    <path d="M 32 8
             Q 14 8 14 28
             L 14 36
             Q 14 42 18 44
             L 22 44
             L 22 50
             L 26 50
             L 26 46
             L 30 46
             L 30 50
             L 34 50
             L 34 46
             L 38 46
             L 38 50
             L 42 50
             L 42 44
             L 46 44
             Q 50 42 50 36
             L 50 28
             Q 50 8 32 8 Z"
          stroke-width="2.5"/>
    <!-- Eye sockets -->
    <ellipse cx="24" cy="28" rx="4.5" ry="5.5" fill="#0a0604"/>
    <ellipse cx="40" cy="28" rx="4.5" ry="5.5" fill="#0a0604"/>
    <!-- Nasal cavity -->
    <path d="M 32 36 L 29 42 L 35 42 Z" fill="#0a0604"/>
  </g>
</svg>
